<svg width="16" height="16" viewBox="0 0 16 16" fill="none" xmlns="http://www.w3.org/2000/svg">
<g clip-path="url(#clip0_7221_9100)">
<path d="M13.7457 0.385376H2.16992C1.06535 0.385376 0.167818 1.26613 0.165222 2.35259L0.138019 13.7386C0.135423 14.825 1.02875 15.7058 2.13332 15.7058H13.7091C14.8136 15.7058 15.7112 14.825 15.7138 13.7386L15.741 2.35259C15.7435 1.26613 14.8502 0.385376 13.7457 0.385376Z" fill="#00DDB3"/>
<path d="M12.2007 4.00012C9.42036 4.00012 8.39 5.78146 7.56143 7.21212L7.02036 8.12746C6.14321 9.64512 5.4875 10.5675 3.79893 10.5675C3.69393 10.5675 3.59 10.5861 3.49321 10.6218C3.39665 10.6571 3.30853 10.7099 3.23393 10.7771C3.16 10.8438 3.10107 10.9228 3.06071 11.0098C3.02036 11.0968 3 11.1898 3 11.2838C3.00036 11.4738 3.08464 11.6558 3.23429 11.7901C3.38393 11.9245 3.58714 12.0001 3.79857 12.0001C6.58 12.0001 7.61036 10.2191 8.43893 8.78846L8.97893 7.87279C9.8575 6.35546 10.5125 5.43279 12.2004 5.43279C12.3054 5.43312 12.4093 5.41479 12.5064 5.37879C12.6036 5.34279 12.6918 5.29012 12.7657 5.22346C12.84 5.15679 12.8989 5.07812 12.9393 4.99112C12.9796 4.90412 13 4.81112 13 4.71679C13 4.52679 12.9154 4.34446 12.7654 4.21012C12.613 4.07502 12.4108 3.99982 12.2007 4.00012Z" fill="white"/>
</g>
<defs>
<clipPath id="clip0_7221_9100">
<rect width="16" height="16" fill="white"/>
</clipPath>
</defs>
</svg>
